<svg xmlns="http://www.w3.org/2000/svg" viewBox="0 0 256 256"><circle cx="128" cy="128" r="128" fill="#1f2836"/><path d="M121.7,200q-20.3,0-36.35-9.44a65.76,65.76,0,0,1-25-26.2q-9-16.77-9-37.54,0-20.29,9-36.35a65.3,65.3,0,0,1,25-25.26Q101.4,56,121.7,56a59.24,59.24,0,0,1,23.61,4.48,62.07,62.07,0,0,1,17.94,11.57,14.69,14.69,0,0,1,5.67-10.15,16.91,16.91,0,0,1,10.38-3.54,17.24,17.24,0,0,1,11.1,4q4.95,4,4.95,12v111q0,7.09-4.95,10.86a18.17,18.17,0,0,1-22.19,0q-5-3.76-5-10.86v-1.88a57.26,57.26,0,0,1-17.94,12A59.24,59.24,0,0,1,121.7,200Zm2.84-29.27q17.94,0,28.32-12t10.39-31.87q0-18.88-10.39-30.22T124.54,85.27q-18.42,0-29.75,11.33T83.46,126.82q0,19.83,11.33,31.87T124.54,170.73Z" fill="#c9a16f"/></svg>