<svg width="2185" height="2185" viewBox="0 0 2185 2185" fill="none" xmlns="http://www.w3.org/2000/svg">
<circle cx="1092.5" cy="1092.5" r="1092.5" fill="black"/>
<path d="M630 1696C584 1696 561 1666 561 1606C561 1558 579 1506 615 1450C655 1386 709 1326 777 1270C863 1196 934 1162 990 1168C1044 1022 1102 888 1164 766C1252 594 1332 485 1404 439C1438 417 1473 406 1509 406C1567 406 1596 436 1596 496C1596 602 1532 732 1404 886C1360 942 1310 997 1254 1051C1200 1105 1141 1160 1077 1216C1053 1278 1034 1334 1020 1384C1008 1434 1001 1479 999 1519C1007 1599 1044 1639 1110 1639C1188 1639 1285 1578 1401 1456C1411 1444 1419 1438 1425 1438C1431 1438 1434 1442 1434 1450C1434 1458 1431 1467 1425 1477C1291 1621 1174 1693 1074 1693C1026 1693 987 1672 957 1630C925 1586 908 1533 906 1471C856 1537 806 1592 756 1636C704 1676 662 1696 630 1696ZM1101 1156C1203 1058 1293 952 1371 838C1471 694 1527 581 1539 499V484C1539 460 1531 448 1515 448C1475 448 1434 485 1392 559C1338 653 1287 750 1239 850C1191 950 1145 1052 1101 1156ZM693 1606C715 1606 744 1591 780 1561C846 1505 889 1450 909 1396C941 1298 962 1243 972 1231C918 1227 864 1248 810 1294C760 1332 720 1383 690 1447C668 1487 657 1523 657 1555C657 1589 669 1606 693 1606Z" fill="white"/>
</svg>
