<svg width="512" height="512" viewBox="0 0 512 512" fill="none" xmlns="http://www.w3.org/2000/svg">
<circle cx="256" cy="256" r="256" fill="#121212"/>
<g clip-path="url(#clip0_3173_11)">
<path d="M334.276 257.159C346.671 265.664 319.226 260.911 334.276 257.159C320.799 248.916 330.021 217.535 305.298 223.699C280.574 229.864 263.399 250.24 255.377 263.836C248.154 276.075 242.804 286.691 227.754 290.443C212.704 294.195 203.268 288.424 190.872 279.919C177.395 271.675 161.085 268.856 136.362 275.02C111.639 281.184 102.148 290.444 94.1253 304.041C86.9022 316.28 81.5523 326.895 66.502 330.648C51.4522 334.4 42.0158 328.628 29.6208 320.123C16.1438 311.88 -0.292006 300.902 -25.0154 307.067C-49.7387 313.231 -59.1041 330.649 -67.1265 344.245C-74.3495 356.485 -79.6995 367.1 -94.7498 370.852C-109.8 374.604 -119.236 368.833 -131.631 360.328C-145.108 352.084 -161.544 341.107 -186.267 347.271C-210.99 353.435 -220.356 370.854 -228.378 384.45C-235.601 396.689 -240.951 407.304 -256.002 411.057C-271.051 414.809 -280.488 409.037 -292.883 400.532C-306.36 392.289 -322.795 381.312 -347.519 387.476C-372.242 393.64 -381.608 411.058 -389.63 424.654C-396.853 436.894 -402.203 447.509 -417.253 451.261C-432.303 455.014 -441.739 449.242 -454.134 440.737C-467.611 432.493 -484.047 421.516 -508.771 427.68C-515.219 429.288 -518.435 434.727 -516.8 441.286C-515.166 447.838 -509.779 451.139 -503.323 449.53C-488.273 445.777 -478.837 451.549 -466.442 460.054C-452.965 468.297 -436.529 479.275 -411.806 473.111C-387.082 466.946 -377.717 449.528 -369.695 435.932C-362.471 423.693 -357.122 413.078 -342.071 409.325C-327.021 405.573 -317.585 411.344 -305.19 419.849C-291.713 428.093 -275.277 439.07 -250.554 432.906C-225.831 426.742 -216.465 409.324 -208.443 395.727C-201.22 383.488 -195.87 372.873 -180.819 369.12C-165.77 365.368 -156.333 371.14 -143.938 379.645C-130.461 387.888 -114.026 398.866 -89.3022 392.701C-64.5788 386.537 -55.2134 369.119 -47.191 355.523C-39.9679 343.283 -34.6181 332.668 -19.5677 328.916C-4.51793 325.164 4.91841 330.935 17.3135 339.44C30.7905 347.684 47.2263 358.661 71.9496 352.497C96.673 346.333 106.038 328.914 114.061 315.318C121.284 303.079 126.634 292.464 141.684 288.711C156.734 284.959 166.17 290.731 178.565 299.236C192.042 307.479 208.478 318.456 233.201 312.292C257.925 306.128 267.29 288.71 275.312 275.114C282.535 262.874 287.885 252.259 302.936 248.507C317.986 244.754 333.365 264.111 327.921 242.277C340.356 249.953 309.553 263.323 334.276 257.159C335.912 263.719 340.725 255.551 334.276 257.159C339.653 255.819 332.641 250.6 334.276 257.159Z" fill="url(#paint0_linear_3173_11)"/>
<path fill-rule="evenodd" clip-rule="evenodd" d="M192.21 277.912L192.262 277.948C198.484 282.217 203.696 285.603 209.142 287.519C214.479 289.397 220.112 289.881 227.174 288.12C240.25 284.86 245.338 276.184 252.023 264.786C252.437 264.08 252.857 263.364 253.286 262.638C261.452 248.798 279.073 227.77 304.718 221.376C311.343 219.725 316.262 220.467 319.869 223.284C323.316 225.974 325.072 230.21 326.325 234.323C326.819 235.945 327.26 237.641 327.687 239.301L329.213 240.243C331.086 241.399 332.403 242.826 333.031 244.55C333.66 246.278 333.478 247.979 332.982 249.452C332.743 250.16 332.417 250.855 332.039 251.526C332.246 251.851 332.461 252.161 332.685 252.458C333.36 251.786 334.241 251.497 335.083 251.529C335.929 251.561 336.639 251.903 337.144 252.279C337.97 252.894 338.825 254.071 338.764 255.535C338.834 255.595 338.902 255.66 338.968 255.727C340.107 256.884 340.109 258.324 339.762 259.399C339.883 259.713 339.972 260.054 340.004 260.42C340.08 261.308 339.803 262.155 339.231 262.821C338.715 263.422 338.069 263.749 337.556 263.934C337.028 264.125 336.479 264.223 335.975 264.271C334.967 264.368 333.863 264.292 332.849 264.116C331.835 263.941 330.774 263.642 329.868 263.211C329.416 262.995 328.934 262.714 328.507 262.347C328.157 262.046 327.752 261.607 327.487 261.01C326.743 261.103 326.065 261.149 325.469 261.127C324.882 261.105 324.022 261.01 323.267 260.521C322.842 260.247 322.443 259.842 322.189 259.289C321.939 258.747 321.898 258.213 321.938 257.778C322.012 256.995 322.369 256.34 322.61 255.949C322.838 255.577 323.13 255.182 323.448 254.784C323.074 254.681 322.705 254.567 322.344 254.449C321.357 254.128 320.264 253.721 319.156 253.307C318.782 253.168 318.406 253.028 318.033 252.89C316.511 252.33 314.931 251.776 313.298 251.331C310.017 250.438 306.701 250.036 303.515 250.83C290.439 254.09 285.351 262.766 278.666 274.164C278.252 274.87 277.832 275.586 277.404 276.312C277.073 276.872 276.739 277.441 276.401 278.017C268.585 291.332 258.542 308.442 233.781 314.616C209.022 320.788 192.132 310.404 178.973 302.314C178.402 301.963 177.838 301.616 177.281 301.275L177.228 301.243L177.176 301.207C170.954 296.938 165.742 293.551 160.296 291.635C154.958 289.757 149.325 289.274 142.263 291.035C129.187 294.295 124.099 302.971 117.415 314.368C117.001 315.074 116.58 315.791 116.152 316.517C115.821 317.077 115.487 317.646 115.149 318.221C107.334 331.536 97.2898 348.646 72.5288 354.82C47.7707 360.993 30.8807 350.609 17.7209 342.518C17.1503 342.167 16.5866 341.821 16.0297 341.48L15.9759 341.447L15.9239 341.411C9.70183 337.142 4.48977 333.756 -0.956101 331.84C-6.29349 329.962 -11.9265 329.478 -18.9885 331.239C-32.0642 334.499 -37.1525 343.175 -43.8371 354.573C-44.2511 355.279 -44.6714 355.995 -45.0998 356.721C-45.4304 357.282 -45.7642 357.85 -46.1021 358.426C-53.918 371.741 -63.9618 388.851 -88.723 395.025C-113.481 401.198 -130.371 390.813 -143.531 382.723C-144.101 382.372 -144.665 382.025 -145.222 381.685L-145.276 381.652L-145.328 381.616C-151.55 377.347 -156.762 373.96 -162.208 372.044C-167.545 370.166 -173.178 369.683 -180.24 371.444C-193.316 374.704 -198.404 383.38 -205.089 394.777C-205.503 395.483 -205.923 396.2 -206.352 396.926C-206.682 397.486 -207.016 398.055 -207.354 398.63C-215.17 411.945 -225.214 429.056 -249.975 435.229C-274.733 441.402 -291.623 431.018 -304.782 422.927C-305.353 422.576 -305.917 422.23 -306.474 421.889L-306.528 421.856L-306.58 421.821C-312.802 417.551 -318.014 414.165 -323.459 412.249C-328.797 410.371 -334.43 409.888 -341.492 411.648C-354.568 414.908 -359.656 423.584 -366.341 434.982C-366.755 435.688 -367.175 436.404 -367.603 437.131C-367.934 437.691 -368.268 438.259 -368.606 438.835C-376.421 452.15 -386.465 469.26 -411.226 475.434C-435.984 481.607 -452.874 471.223 -466.034 463.132C-466.605 462.781 -467.168 462.434 -467.725 462.094L-467.779 462.061L-467.831 462.025C-474.053 457.756 -479.265 454.369 -484.711 452.453C-490.049 450.575 -495.682 450.092 -502.744 451.853C-506.527 452.796 -510.174 452.332 -513.154 450.508C-516.127 448.689 -518.21 445.657 -519.153 441.873C-520.097 438.085 -519.68 434.428 -517.908 431.427C-516.131 428.419 -513.129 426.299 -509.35 425.357C-484.592 419.184 -467.702 429.568 -454.542 437.659C-453.971 438.01 -453.408 438.356 -452.851 438.697L-452.797 438.73L-452.745 438.766C-446.523 443.035 -441.311 446.422 -435.865 448.338C-430.528 450.215 -424.895 450.699 -417.833 448.938C-404.757 445.678 -399.668 437.002 -392.984 425.604C-392.57 424.898 -392.15 424.182 -391.721 423.456C-391.39 422.896 -391.057 422.327 -390.719 421.751C-382.903 408.436 -372.859 391.326 -348.098 385.153C-323.34 378.98 -306.45 389.364 -293.29 397.455C-292.72 397.805 -292.156 398.152 -291.599 398.493L-291.545 398.526L-291.493 398.561C-285.271 402.831 -280.059 406.217 -274.613 408.133C-269.276 410.011 -263.643 410.494 -256.581 408.733C-243.505 405.473 -238.417 396.797 -231.732 385.4C-231.318 384.694 -230.898 383.977 -230.469 383.251C-230.139 382.691 -229.805 382.122 -229.467 381.547C-221.651 368.232 -211.608 351.122 -186.846 344.948C-162.088 338.775 -145.198 349.159 -132.039 357.25C-131.468 357.601 -130.904 357.947 -130.347 358.288L-130.293 358.321L-130.242 358.357C-124.019 362.626 -118.807 366.012 -113.362 367.928C-108.024 369.806 -102.391 370.29 -95.3291 368.529C-82.2533 365.269 -77.165 356.593 -70.4803 345.195C-70.0663 344.489 -69.6461 343.773 -69.2177 343.047C-68.8871 342.487 -68.5533 341.918 -68.2154 341.342C-60.3995 328.027 -50.3558 310.917 -25.5947 304.743C-0.836587 298.571 16.0534 308.955 29.2131 317.045C29.7838 317.396 30.3474 317.743 30.9044 318.083L30.9582 318.116L31.0102 318.152C37.2322 322.421 42.4443 325.808 47.8902 327.724C53.2276 329.602 58.8606 330.085 65.9226 328.324C78.9983 325.064 84.0867 316.388 90.7712 304.991C91.1853 304.285 91.6055 303.568 92.0339 302.842C96.1412 295.881 100.717 289.874 107.536 284.828C114.338 279.794 123.218 275.829 135.783 272.697C160.989 266.412 178.003 269.222 192.156 277.879L192.21 277.912ZM-389.63 424.654C-390.085 425.425 -390.532 426.19 -390.976 426.947C-397.565 438.204 -403.151 447.745 -417.253 451.261C-432.303 455.014 -441.739 449.242 -454.134 440.737C-454.668 440.411 -455.206 440.08 -455.748 439.747C-468.925 431.652 -485.025 421.76 -508.771 427.68C-515.219 429.288 -518.435 434.727 -516.8 441.286C-515.166 447.838 -509.779 451.139 -503.323 449.53C-488.273 445.777 -478.837 451.549 -466.442 460.054C-465.908 460.38 -465.371 460.71 -464.828 461.044C-451.651 469.139 -435.551 479.031 -411.806 473.111C-388.058 467.189 -378.48 450.885 -370.651 437.558C-370.33 437.011 -370.011 436.468 -369.695 435.932C-369.24 435.161 -368.792 434.396 -368.349 433.64C-361.759 422.382 -356.173 412.841 -342.071 409.325C-327.021 405.573 -317.585 411.344 -305.19 419.849C-304.657 420.175 -304.119 420.506 -303.576 420.839C-290.399 428.935 -274.299 438.826 -250.554 432.906C-226.806 426.985 -217.228 410.68 -209.399 397.353C-209.078 396.806 -208.759 396.264 -208.443 395.727C-207.988 394.956 -207.54 394.192 -207.097 393.435C-200.507 382.178 -194.922 372.637 -180.819 369.12C-165.77 365.368 -156.333 371.14 -143.938 379.645C-143.405 379.971 -142.867 380.301 -142.324 380.635C-129.148 388.73 -113.047 398.622 -89.3022 392.701C-65.5541 386.78 -55.9762 370.476 -48.1475 357.149C-47.826 356.602 -47.5074 356.059 -47.191 355.523C-46.7359 354.752 -46.2884 353.987 -45.8454 353.23C-39.2555 341.973 -33.67 332.432 -19.5677 328.916C-4.51793 325.164 4.91841 330.935 17.3135 339.44C17.8467 339.766 18.3846 340.097 18.9274 340.43C32.1041 348.526 48.2045 358.417 71.9496 352.497C95.6977 346.576 105.275 330.271 113.104 316.944C113.426 316.397 113.744 315.855 114.061 315.318C114.516 314.547 114.963 313.783 115.406 313.026C121.996 301.769 127.582 292.227 141.684 288.711C156.734 284.959 166.17 290.731 178.565 299.236C179.099 299.562 179.636 299.892 180.179 300.226C193.356 308.321 209.456 318.213 233.201 312.292C256.949 306.371 266.527 290.067 274.356 276.74C274.677 276.193 274.996 275.65 275.312 275.114C275.767 274.343 276.215 273.578 276.658 272.822C283.248 261.564 288.833 252.023 302.936 248.507C309.068 246.978 315.256 249.286 320.067 251.081C322.04 251.817 323.782 252.467 325.193 252.73C325.948 252.87 326.608 252.9 327.158 252.774C328.025 252.575 328.62 251.988 328.885 250.835C328.995 251.058 329.107 251.278 329.222 251.495C328.726 252.221 328.172 252.923 327.62 253.586C327.248 254.032 326.878 254.46 326.527 254.865C326.415 254.995 326.305 255.123 326.197 255.248C324.086 257.698 322.973 259.204 327.412 258.605C328.387 258.473 329.629 258.24 331.188 257.893C331.424 257.84 331.667 257.785 331.918 257.727C332.641 257.56 333.426 257.371 334.276 257.159C333.42 256.635 332.655 256.018 331.968 255.323C331.95 255.305 331.932 255.287 331.914 255.269C331.814 255.166 331.715 255.062 331.617 254.955C331.256 254.561 330.917 254.144 330.597 253.707C330.517 253.597 330.438 253.486 330.36 253.374C329.948 252.78 329.571 252.152 329.222 251.495C329.809 250.637 330.313 249.745 330.635 248.845C331.391 246.734 331.14 244.581 328.582 242.72C328.376 242.57 328.156 242.423 327.921 242.277C328.984 246.541 329.253 249.234 328.885 250.835C328.571 250.194 328.281 249.529 328.01 248.846C327.247 246.918 326.637 244.844 326.074 242.738C325.851 241.902 325.635 241.061 325.42 240.222C325.181 239.294 324.943 238.368 324.697 237.455C322.213 228.248 318.872 220.315 305.298 223.699C280.574 229.864 263.399 250.24 255.377 263.836C254.922 264.607 254.474 265.372 254.031 266.128C247.441 277.386 241.856 286.927 227.754 290.443C212.704 294.195 203.268 288.424 190.872 279.919C177.395 271.675 161.085 268.856 136.362 275.02C111.639 281.184 102.148 290.444 94.1253 304.041C93.6702 304.812 93.2226 305.576 92.7795 306.333C86.1896 317.59 80.6042 327.131 66.502 330.648C51.4522 334.4 42.0158 328.628 29.6208 320.123C29.0875 319.797 28.5495 319.467 28.0067 319.133C14.83 311.038 -1.27029 301.146 -25.0154 307.067C-48.7634 312.988 -58.3413 329.292 -66.17 342.619C-66.4915 343.166 -66.81 343.709 -67.1265 344.245C-67.5815 345.016 -68.0291 345.781 -68.4721 346.538C-75.0621 357.795 -80.6475 367.336 -94.7498 370.852C-109.8 374.604 -119.236 368.833 -131.631 360.328C-132.164 360.002 -132.702 359.671 -133.245 359.338C-146.422 351.242 -162.522 341.351 -186.267 347.271C-210.015 353.192 -219.593 369.497 -227.422 382.824C-227.743 383.371 -228.062 383.913 -228.378 384.45C-228.833 385.221 -229.281 385.985 -229.724 386.742C-236.314 397.999 -241.899 407.541 -256.002 411.057C-271.051 414.809 -280.488 409.037 -292.883 400.532C-293.416 400.206 -293.954 399.876 -294.497 399.542C-307.673 391.447 -323.774 381.555 -347.519 387.476C-371.267 393.397 -380.845 409.701 -388.673 423.028C-388.995 423.576 -389.313 424.118 -389.63 424.654Z" fill="url(#paint1_linear_3173_11)"/>
</g>
<path fill-rule="evenodd" clip-rule="evenodd" d="M192.604 245.335L176.194 247.893C165.442 249.568 157.12 254.25 150.229 262.382C143.287 270.573 139.944 279.654 139.944 290.639C139.944 303.102 144.025 312.896 152.565 321.435C161.104 329.975 170.898 334.056 183.362 334.056H342.986C351.147 334.056 357.77 331.383 364.046 325.107C370.322 318.831 372.995 312.208 372.995 304.047C372.995 294.324 369.985 287.634 364.306 282.126C358.471 276.466 351.811 273.775 342.693 274.028L318.085 274.712V242.432C318.085 224.17 312.153 209.281 300.042 196.462C288.171 183.898 274.351 177.944 257.108 177.944C242.004 177.944 229.233 182.564 217.82 192.048C206.378 201.557 199.152 213.576 195.957 229.07L192.604 245.335ZM341.535 232.327C339.542 212.343 331.512 194.907 317.446 180.019C301.058 162.673 280.945 154 257.108 154C236.463 154 218.266 160.545 202.516 173.634C186.767 186.723 176.764 203.59 172.507 224.235C156.119 226.789 142.604 234.344 131.962 246.901C121.321 259.459 116 274.038 116 290.639C116 309.368 122.545 325.277 135.634 338.366C148.723 351.455 164.632 358 183.362 358H342.986C357.671 358 370.335 352.679 380.977 342.038C391.618 331.396 396.939 318.732 396.939 304.047C396.939 288.297 391.618 275.261 380.977 264.939C371.178 255.434 359.394 250.486 345.625 250.094C344.441 250.06 343.242 250.06 342.028 250.094V242.432C342.028 238.994 341.864 235.626 341.535 232.327Z" fill="white"/>
<path fill-rule="evenodd" clip-rule="evenodd" d="M192.604 245.335L176.194 247.893C165.442 249.568 157.12 254.25 150.229 262.382C143.287 270.573 139.944 279.654 139.944 290.639C139.944 303.102 144.025 312.896 152.565 321.435C161.104 329.975 170.898 334.056 183.362 334.056H342.986C351.147 334.056 357.77 331.383 364.046 325.107C370.322 318.831 372.995 312.208 372.995 304.047C372.995 294.324 369.985 287.634 364.306 282.126C358.471 276.466 351.811 273.775 342.693 274.028L318.085 274.712V242.432C318.085 224.17 312.153 209.281 300.042 196.462C288.171 183.898 274.351 177.944 257.108 177.944C242.004 177.944 229.233 182.564 217.82 192.048C206.378 201.557 199.152 213.576 195.957 229.07L192.604 245.335ZM341.535 232.327C339.542 212.343 331.512 194.907 317.446 180.019C301.058 162.673 280.945 154 257.108 154C236.463 154 218.266 160.545 202.516 173.634C186.767 186.723 176.764 203.59 172.507 224.235C156.119 226.789 142.604 234.344 131.962 246.901C121.321 259.459 116 274.038 116 290.639C116 309.368 122.545 325.277 135.634 338.366C148.723 351.455 164.632 358 183.362 358H342.986C357.671 358 370.335 352.679 380.977 342.038C391.618 331.396 396.939 318.732 396.939 304.047C396.939 288.297 391.618 275.261 380.977 264.939C371.178 255.434 359.394 250.486 345.625 250.094C344.441 250.06 343.242 250.06 342.028 250.094V242.432C342.028 238.994 341.864 235.626 341.535 232.327Z" fill="url(#paint2_linear_3173_11)"/>
<defs>
<linearGradient id="paint0_linear_3173_11" x1="134.282" y1="282.913" x2="327.055" y2="229.499" gradientUnits="userSpaceOnUse">
<stop stop-color="#E1C06B"/>
<stop offset="1" stop-color="#EAC971"/>
</linearGradient>
<linearGradient id="paint1_linear_3173_11" x1="134.282" y1="282.913" x2="327.055" y2="229.499" gradientUnits="userSpaceOnUse">
<stop stop-color="#E1C06B"/>
<stop offset="1" stop-color="#EAC971"/>
</linearGradient>
<linearGradient id="paint2_linear_3173_11" x1="256.47" y1="154" x2="256.47" y2="358" gradientUnits="userSpaceOnUse">
<stop stop-color="#FAD77B"/>
<stop offset="1" stop-color="#D2B361"/>
</linearGradient>
<clipPath id="clip0_3173_11">
<rect width="202.913" height="96.6729" fill="white" transform="translate(128.303 256.557) rotate(-14)"/>
</clipPath>
</defs>
</svg>
